<?xml version="1.0" encoding="utf-8"?>
<!-- Svg Vector Icons : http://www.onlinewebfonts.com/icon -->
<!DOCTYPE svg PUBLIC "-//W3C//DTD SVG 1.1//EN" "http://www.w3.org/Graphics/SVG/1.1/DTD/svg11.dtd">
<svg version="1.1" xmlns="http://www.w3.org/2000/svg" xmlns:xlink="http://www.w3.org/1999/xlink" x="0px" y="0px" viewBox="0 0 256 256" enable-background="new 0 0 256 256" xml:space="preserve">
<metadata> Svg Vector Icons : http://www.onlinewebfonts.com/icon </metadata>
<g><g><g><path fill="#000000" d="M30.4,53.4c-0.2,0.1-0.3,14.6-0.3,32V117h-1.6c-1.3,0-2.3,0.8-8.2,6.7l-6.7,6.7l84.8,0h84.8l-6.9-6.7c-6-5.8-7.1-6.6-8.5-6.6h-1.6V85V53l-3.4,0.1l-3.5,0.1l-0.1,3.4l-0.1,3.5H98.1H37.2v-3.6V53H34C32.2,53,30.5,53.2,30.4,53.4z M88.1,100.6c0.7,3.2,2.7,15.2,2.7,16c0,0.8-1.4,0.9-25.6,0.9c-16.4,0-25.6-0.2-25.6-0.5c0-0.4,7.1-14.4,8.5-16.6l0.6-1.1h19.5h19.5L88.1,100.6z M152.7,108.2c2.4,4.7,4.4,8.7,4.4,8.9c0,0.4-50.8,0.5-51.2,0.1c-0.2-0.2,2.2-15.9,2.7-17.3c0.2-0.5,4.4-0.6,19.9-0.5l19.7,0.1L152.7,108.2z"/><path fill="#000000" d="M212.8,59.1c-0.7,1.8-2.4,6.4-3.8,10.2l-2.6,6.9l15.3,0.1c8.4,0,15.4,0,15.5-0.1c0.1-0.1-1.5-4.7-3.5-10.2l-3.8-9.9l-8-0.1l-7.9-0.1L212.8,59.1z"/><path fill="#000000" d="M218.8,85.8V91l-1.4,0.8c-0.8,0.5-1.8,1.5-2.2,2.3l-0.8,1.4h-8.1h-8.1v15.3v15.3h23.9H246v-15.3V95.5h-8.3c-7.9,0-8.4,0-8.6-1c-0.1-0.5-1-1.5-1.8-2.2c-1.5-1.2-1.5-1.3-1.8-6.4l-0.2-5.1l-3.2-0.1l-3.2-0.1V85.8L218.8,85.8z M236.9,110.8v4.8h-15h-15v-4.8V106h15h15V110.8z"/><path fill="#000000" d="M198.2,147.1v15.3h2.6h2.6v2.6v2.6h2.9h2.9V165v-2.6h12.7h12.7v2.6v2.6h3.1h3.1V165v-2.6h2.6h2.6v-15.3v-15.3h-23.9h-23.9V147.1L198.2,147.1z M236.9,147.1v4.8h-15h-15v-4.8v-4.8h15h15V147.1z"/><path fill="#000000" d="M10,160.5V182h6.2h6.2l0.2,7.7c0.1,7.3,0.2,7.9,1.3,9.6c1.6,2.5,4.1,3.6,8.6,3.6c5.3,0,7.9-1.5,9.4-5.5c0.3-0.9,0.6-4.3,0.6-8.5l0-7h56.1h56.1l0.2,7.7c0.1,7.3,0.2,7.9,1.3,9.6c1.6,2.5,4.1,3.6,8.6,3.6c4.1,0,6.1-0.7,7.9-2.8c1.8-2.2,2.2-4.3,2.2-11.7V182h6.2h6.2v-21.5V139H98.6H10V160.5z"/></g></g></g>
</svg>