<?xml version="1.0" encoding="utf-8"?>
<!-- Svg Vector Icons : http://www.onlinewebfonts.com/icon -->
<!DOCTYPE svg PUBLIC "-//W3C//DTD SVG 1.1//EN" "http://www.w3.org/Graphics/SVG/1.1/DTD/svg11.dtd">
<svg version="1.1" xmlns="http://www.w3.org/2000/svg" xmlns:xlink="http://www.w3.org/1999/xlink" x="0px" y="0px" viewBox="0 0 256 256" enable-background="new 0 0 256 256" xml:space="preserve">
<metadata> Svg Vector Icons : http://www.onlinewebfonts.com/icon </metadata>
<g><g><g><path fill="#000000" d="M193.1,23.9c-1.1,0.2-3.2,1-4.7,1.7l-2.8,1.2l-2.2-1c-3.5-1.7-8.2-2.3-12.2-1.6c-3.9,0.7-8.3,2.6-9.6,4.3c-1.2,1.5-1.2,4,0,6.2c1.2,2.3,21.8,22.7,24,23.9c1.8,0.9,4.8,0.8,6.1-0.3c1.2-1,3-4.9,3.8-8.3c1-3.6,0.7-8.2-0.7-11.9c-0.5-1.4-0.9-2.7-0.8-2.8c0.1-0.1,1.2-0.4,2.4-0.6c5.8-1.1,12.1,2.9,13.7,8.6c0.3,1.1,0.5,15.6,0.5,39.3v37.6l5.7-0.1l5.6-0.1l0.1-36.2c0.1-23.2,0-37.6-0.4-40.1c-1.2-9.6-7.9-17.3-17-19.7C201.4,23.3,196,23.2,193.1,23.9z"/><path fill="#000000" d="M150.6,41.6c-3.4,1.6-4.5,3.1-3.6,5c0.9,1.9,2.6,2,6.4,0.4c1.9-0.7,3.6-1.7,3.8-2.2c0.8-1.4,0.5-3.2-0.6-4C155.2,39.8,154,39.9,150.6,41.6z"/><path fill="#000000" d="M137.3,49.1c-4.5,3-5.5,5-3.6,6.9c1.4,1.4,2.9,1.2,6.1-1.2c3.7-2.7,4.4-4.2,2.5-6C141.1,47.5,139.6,47.6,137.3,49.1z"/><path fill="#000000" d="M160.3,52.2c-4.5,3.4-5.6,5.5-3.6,7.2c1.5,1.3,3.3,1,6-1.2c3.1-2.5,3.2-2.7,3.2-4.2C165.9,51.3,162.8,50.4,160.3,52.2z"/><path fill="#000000" d="M123.3,61.1c-2.8,3-3.2,4.7-1.6,6.1c1.7,1.5,3.3,1.1,6.1-1.8c1.9-2,2.5-3,2.5-4.1c0-1.9-1.1-3-3-3C126.2,58.4,125.4,58.9,123.3,61.1z"/><path fill="#000000" d="M174,60.3c-0.5,0.2-1.7,1.8-2.8,3.4c-2.2,3.3-2.3,4.8-0.4,6.3c1.8,1.4,3.4,0.5,5.7-3.1c2.3-3.6,2.4-4.3,0.8-5.9C175.9,59.7,175.3,59.6,174,60.3z"/><path fill="#000000" d="M147.4,64.5c-1.2,1.3-2.4,2.8-2.7,3.4c-1.2,2.3,0.9,4.9,3.5,4.3c1.5-0.4,5.7-5.4,5.7-6.9c0-1.5-1.6-3.1-3.1-3.1C149.9,62.2,148.9,62.9,147.4,64.5z"/><path fill="#000000" d="M114.9,72c-0.6,0.6-1.7,2.4-2.5,3.8c-1.2,2.3-1.3,2.8-0.8,3.9c0.7,1.5,2.3,2.3,3.7,1.7c1.2-0.4,5-6.1,5-7.5c0-1.3-1.9-3.1-3.3-3.1C116.4,70.9,115.5,71.4,114.9,72z"/><path fill="#000000" d="M164.8,75c-1.3,1.5-3.3,5.9-3.3,7.3c0,2,1.9,3.3,3.7,2.6c1.6-0.5,4.4-5.5,4.4-7.7C169.7,74.6,166.5,73.2,164.8,75z"/><path fill="#000000" d="M138.2,76.9c-0.8,1-1.9,2.6-2.4,3.8c-0.9,1.8-1,2.3-0.5,3.4c0.6,1.3,2.1,2,3.6,1.6c1.2-0.2,4.9-5.9,4.9-7.4c0-0.6-0.4-1.6-1-2.1C141.4,74.6,139.8,74.9,138.2,76.9z"/><path fill="#000000" d="M158,90c-0.5,0.5-1.4,2.4-2,4.1c-1,2.6-1.1,3.4-0.6,4.2c0.8,1.4,1.3,1.8,2.9,1.8c1.6,0,2.4-1,3.7-4.5c1.2-3.5,1.2-4.4,0-5.6C160.9,88.8,159.1,88.8,158,90z"/><path fill="#000000" d="M131.3,90c-1,0.6-3.4,6.7-3.2,7.9c0.1,0.5,0.7,1.2,1.4,1.8c2,1.5,3.6,0.6,5.2-3.3c1.7-3.8,1.8-4.5,0.3-5.9C133.8,89.5,132.5,89.3,131.3,90z"/><path fill="#000000" d="M152.8,105.6c-0.8,0.8-1.7,3.7-1.7,5.4c0,1.3,1.6,3,2.8,3c2.2,0,3.9-2.8,3.9-6.3C157.7,105.4,154.4,104,152.8,105.6z"/><path fill="#000000" d="M14.5,129.5c-1.4,0.8-2.3,1.8-3.3,3.7c-1.2,2.4-1.3,3-1.2,6.1c0.1,2.9,0.4,3.8,1.6,5.5c0.8,1.1,2.2,2.4,3.1,2.8c1.6,0.8,8,0.9,113.2,0.9c94.2,0,111.7-0.1,113.1-0.7c6.6-2.7,6.8-15.2,0.3-18.4l-2.1-1.1H127.7H16.4L14.5,129.5z"/><path fill="#000000" d="M21.2,160.2c1.9,11.2,7.2,23.8,14.2,33c5.7,7.5,15.3,15.6,23.3,19.6c3.3,1.6,9.9,4,13.5,4.8l2.4,0.6l-0.9,1.8c-1.1,2.1-1.2,6.6-0.2,8.9c0.3,0.9,1.2,2,2,2.6c1.2,1,1.9,1.1,8.9,1.1c6.9,0,7.6-0.1,8.8-1c3-2.4,3.8-7.1,2-11.6c-0.3-0.8,1.4-0.8,32.9-0.8c31.4,0,33.2,0,32.9,0.8c-1.9,4.5-1.1,9.3,2,11.6c1.2,0.9,1.9,1,8.8,1c7,0,7.6-0.1,8.9-1.1c0.7-0.6,1.6-1.7,2-2.6c1-2.3,0.9-6.8-0.2-8.9l-0.9-1.8l2.4-0.6c3.6-0.9,10.2-3.2,13.5-4.8c8-4,17.6-12.1,23.3-19.6c6.9-9.2,12.3-21.8,14.2-33l0.3-2H128H20.9L21.2,160.2z"/></g></g></g>
</svg>