<?xml version="1.0" encoding="utf-8"?>
<!-- Svg Vector Icons : http://www.onlinewebfonts.com/icon -->
<!DOCTYPE svg PUBLIC "-//W3C//DTD SVG 1.1//EN" "http://www.w3.org/Graphics/SVG/1.1/DTD/svg11.dtd">
<svg version="1.1" xmlns="http://www.w3.org/2000/svg" xmlns:xlink="http://www.w3.org/1999/xlink" x="0px" y="0px" viewBox="0 0 256 256" enable-background="new 0 0 256 256" xml:space="preserve">
<metadata> Svg Vector Icons : http://www.onlinewebfonts.com/icon </metadata>
<g><g><path fill="#000000" d="M234.2,21.8H21.8c-7.1,0-11.8,4.7-11.8,11.8v141.6c0,7.1,4.7,11.8,11.8,11.8h212.4c7.1,0,11.8-4.7,11.8-11.8V33.6C246,26.5,241.3,21.8,234.2,21.8z M234.2,163.4c0,7.1-4.7,11.8-11.8,11.8H33.6c-7.1,0-11.8-4.7-11.8-11.8v-118c0-7.1,4.7-11.8,11.8-11.8h188.8c7.1,0,11.8,4.7,11.8,11.8V163.4z M45.4,234.2h165.2v-11.8H45.4V234.2z"/><path fill="#000000" d="M57.2,80.8h23.6v59h11.8v-59h23.6V69h-59V80.8z M171.7,69l-20.1,55.5L131.5,69h-13l26,70.8h13l26-70.8H171.7z"/></g></g>
</svg>